<svg id="Capa_1" enable-background="new 0 0 512 512" height="512" viewBox="0 0 512 512" width="512" xmlns="http://www.w3.org/2000/svg"><g><path d="m355.8 389.88-88.73-97c-2.97-3.24-7.01-4.87-11.06-4.88-4.14 0-8.28 1.69-11.27 5.09l-85.36 97c-4.99 5.67-4.99 14.15 0 19.82l85.36 97c2.98 3.39 7.12 5.09 11.27 5.09 4.04 0 8.08-1.62 11.06-4.88l88.73-97c5.25-5.73 5.25-14.51 0-20.24z" fill="#ff6a4d"/><path d="m301 0c-17.74 0-33.21 7.79-44.99 22.59l-.01.01c-11.78-14.81-27.26-22.6-45-22.6-34.76 0-60 29.01-60 64.32 0 44.77 41.36 72.43 95.12 119.47 2.83 2.48 6.36 3.71 9.89 3.71 3.52 0 7.04-1.24 9.87-3.71 53.76-47.05 95.12-74.71 95.12-119.47 0-35.31-25.25-64.32-60-64.32z" fill="#ff6a4d"/><path d="m265.88 183.79c-2.83 2.47-6.35 3.71-9.87 3.71v-164.91c11.78-14.8 27.25-22.59 44.99-22.59 34.75 0 60 29.01 60 64.32 0 44.76-41.36 72.42-95.12 119.47z" fill="#f03800"/><path d="m355.8 389.88c5.25 5.73 5.25 14.51 0 20.24l-88.73 97c-2.98 3.26-7.02 4.88-11.06 4.88v-224c4.05.01 8.09 1.64 11.06 4.88z" fill="#f03800"/><path d="m164.97 185.89c1.18-33.33-25.81-61.89-59.97-61.89s-61.15 28.56-59.97 61.89c-25.86 6.67-45.03 30.19-45.03 58.11 0 33.08 26.92 60 60 60 10.92 0 21.17-2.95 30-8.07v38.07h-15c-8.28 0-15 6.72-15 15s6.72 15 15 15h60c8.28 0 15-6.72 15-15s-6.72-15-15-15h-15v-38.07c8.83 5.12 19.08 8.07 30 8.07 33.08 0 60-26.92 60-60 0-27.92-19.17-51.44-45.03-58.11z" fill="#384949"/><path d="m210 244c0 33.08-26.92 60-60 60-10.92 0-21.17-2.95-30-8.07v38.07h15c8.28 0 15 6.72 15 15s-6.72 15-15 15h-30v-240c34.16 0 61.15 28.56 59.97 61.89 25.86 6.67 45.03 30.19 45.03 58.11z" fill="#293939"/><path d="m416.88 123.96c-2.83-2.48-6.36-3.71-9.88-3.71s-7.05 1.23-9.88 3.71c-53.76 47.05-95.12 74.71-95.12 119.47 0 35.31 25.25 64.32 60 64.32 10.98 0 21.09-2.99 30-8.78v35.03h-15c-8.28 0-15 6.72-15 15s6.72 15 15 15h60c8.28 0 15-6.72 15-15s-6.72-15-15-15h-15v-35.03c8.91 5.79 19.02 8.78 30 8.78 34.76 0 60-29.01 60-64.32 0-44.77-41.36-72.43-95.12-119.47z" fill="#384949"/><path d="m512 243.43c0 35.31-25.24 64.32-60 64.32-10.98 0-21.09-2.99-30-8.78v35.03h15c8.28 0 15 6.72 15 15s-6.72 15-15 15h-30v-243.75c3.52 0 7.05 1.23 9.88 3.71 53.76 47.04 95.12 74.7 95.12 119.47z" fill="#293939"/></g></svg>